HIERARCHY
ROOT Hips
{
	OFFSET 0.000000 88.474243 0.000000
	CHANNELS 6 Xposition Yposition Zposition Zrotation Yrotation Xrotation 
	JOINT Hips_Spine
	{
		OFFSET 0.000000 0.000000 0.000000
		CHANNELS 3 Zrotation Yrotation Xrotation
		JOINT Spine
		{
			OFFSET 0.005100 8.711998 -0.691000
			CHANNELS 3 Zrotation Yrotation Xrotation
			JOINT Spine1
			{
				OFFSET -0.009200 8.660301 -1.275000
				CHANNELS 3 Zrotation Yrotation Xrotation
				JOINT Spine2
				{
					OFFSET 0.006300 9.852501 -1.857000
					CHANNELS 3 Zrotation Yrotation Xrotation
					JOINT Spine2_Neck
					{
						OFFSET 0.000000 0.000000 0.000000
						CHANNELS 3 Zrotation Yrotation Xrotation
						JOINT Neck
						{
							OFFSET 0.016300 11.420799 -0.263300
							CHANNELS 3 Zrotation Yrotation Xrotation
							End Site #name: Head
							{
								OFFSET -0.019200 9.262405 2.362500
							}
						}
					}
					JOINT Spine2_LeftShoulder
					{
						OFFSET 0.000000 0.000000 0.000000
						CHANNELS 3 Zrotation Yrotation Xrotation
						JOINT LeftShoulder
						{
							OFFSET 5.616900 6.732201 -0.345700
							CHANNELS 3 Zrotation Yrotation Xrotation
							JOINT LeftArm
							{
								OFFSET 10.664888 -0.183372 -2.440700
								CHANNELS 3 Zrotation Yrotation Xrotation
								JOINT LeftForeArm
								{
									OFFSET 27.459126 0.000000 0.000000
									CHANNELS 3 Zrotation Yrotation Xrotation
									End Site #name: LeftHand
									{
										OFFSET 21.306858 0.000000 0.000000
									}
								}
							}
						}
					}
					JOINT Spine2_RightShoulder
					{
						OFFSET 0.000000 0.000000 0.000000
						CHANNELS 3 Zrotation Yrotation Xrotation
						JOINT RightShoulder
						{
							OFFSET -5.580300 6.737503 -0.344400
							CHANNELS 3 Zrotation Yrotation Xrotation
							JOINT RightArm
							{
								OFFSET -10.679335 -0.188484 -2.383900
								CHANNELS 3 Zrotation Yrotation Xrotation
								JOINT RightForeArm
								{
									OFFSET -27.503529 0.000000 0.000000
									CHANNELS 3 Zrotation Yrotation Xrotation
									End Site #name: RightHand
									{
										OFFSET -21.306808 0.000000 0.000000
									}
								}
							}
						}
					}
				}
			}
		}
	}
	JOINT Hips_LeftUpLeg
	{
		OFFSET 0.000000 0.000000 0.000000
		CHANNELS 3 Zrotation Yrotation Xrotation
		JOINT LeftUpLeg
		{
			OFFSET 6.857700 -6.739601 0.312100
			CHANNELS 3 Zrotation Yrotation Xrotation
			JOINT LeftLeg
			{
				OFFSET -0.367590 -34.731552 -4.572400
				CHANNELS 3 Zrotation Yrotation Xrotation
				End Site #name: LeftFoot
				{
					OFFSET 0.367590 -34.656704 -6.067400
				}
			}
		}
	}
	JOINT Hips_RightUpLeg
	{
		OFFSET 0.000000 0.000000 0.000000
		CHANNELS 3 Zrotation Yrotation Xrotation
		JOINT RightUpLeg
		{
			OFFSET -6.876100 -6.733299 0.301000
			CHANNELS 3 Zrotation Yrotation Xrotation
			JOINT RightLeg
			{
				OFFSET 0.347353 -34.795158 -4.515900
				CHANNELS 3 Zrotation Yrotation Xrotation
				End Site #name: RightFoot
				{
					OFFSET -0.347353 -34.589367 -6.070300
				}
			}
		}
	}
}
MOTION
Frames: 12
Frame Time: 0.041667
0.026104 -0.040450 -0.101937 -6.940557 43.648567 -4.225428 -0.000000 -0.000000 0.000000 -0.337670 -1.693321 0.233855 2.301086 0.184778 1.720006 0.000000 0.000000 0.000000 2.870246 0.017366 0.190513 -3.483769 -4.576918 -1.712771 1.494446 0.922513 0.450620 -6.300674 -15.425291 2.879660 -83.151936 0.004613 -6.611078 0.306378 -6.398553 2.058415 2.277463 -0.326978 -0.212533 5.188334 11.889291 5.105193 36.801145 16.432974 -28.967871 -7.462535 64.409130 -2.702496 0.000000 -0.000000 -0.000000 -2.428531 12.064784 -24.549245 -8.099183 -20.730348 7.716295 0.000000 0.000000 -0.000000 3.666431 -2.658550 -8.990611 7.093401 -4.318134 7.285139 
-0.492173 -0.226787 -0.248293 -7.036290 39.668967 -3.100568 -0.000000 -0.000000 -0.000000 -1.651769 -2.181815 -0.067169 3.369787 0.481688 0.966610 0.000000 0.000000 0.000000 3.497747 0.075307 0.477498 -2.335697 -6.224121 -3.447727 2.809567 0.413964 -0.636051 -7.141746 -15.900897 2.840272 -87.886286 -10.014231 -13.303299 -1.693794 8.133611 0.057319 3.286281 -0.126091 1.232191 5.948193 11.249684 3.921848 33.967981 20.791701 -37.866130 -4.331794 68.306600 0.127031 0.000000 -0.000000 -0.000000 -0.820501 13.402819 -24.538520 -7.730830 -16.797580 6.922527 0.000000 0.000000 0.000000 2.527173 0.733159 -5.595548 11.339308 2.554703 2.358957 
-0.841028 -0.322634 -0.435343 -8.001149 37.038842 -3.884893 -0.000000 -0.000000 -0.000000 -1.807764 -2.501567 -1.059387 3.908466 0.413957 0.479251 0.000000 0.000000 0.000000 3.982514 -0.131961 0.812931 -1.969878 -9.255595 -3.301580 2.931168 0.375418 -0.444599 -6.501216 -14.110914 2.662785 -89.435222 -12.129883 -18.038447 -1.449552 17.808989 -0.102980 3.619096 -0.103610 0.797317 5.499372 9.778544 2.106689 31.085215 19.813486 -44.296856 -7.681401 85.463271 -3.088556 0.000000 -0.000000 -0.000000 0.921201 15.373461 -23.608337 -6.706287 -13.590445 8.976537 0.000000 0.000000 -0.000000 2.272164 -0.664913 -3.092739 13.931474 6.949061 0.393195 
-1.136735 -0.422096 -0.608855 -8.506488 33.024920 -4.648434 -0.000000 -0.000000 -0.000000 -1.024404 -1.806064 -1.858988 3.803330 0.239565 0.336275 0.000000 0.000000 0.000000 4.026240 -0.236777 0.956931 -1.828636 -10.242767 -3.846866 2.767461 0.288153 -0.305199 -7.409605 -11.613402 1.616980 -89.928400 -15.305431 -23.381985 -1.584146 22.852021 -0.129478 3.531499 -0.266248 0.821966 3.864871 7.155171 1.733790 27.763492 19.772246 -50.974919 179.539707 79.788254 -175.821638 0.000000 0.000000 -0.000000 1.835440 16.214903 -21.948041 -5.344950 -12.199893 9.169684 -0.000000 0.000000 -0.000000 2.477150 -3.621858 -1.437053 15.206632 9.335220 -0.586963 
-1.362977 -0.502876 -0.760643 -8.575906 29.550934 -4.660276 -0.000000 -0.000000 -0.000000 -0.247078 -1.411156 -2.563263 3.551010 0.132075 0.523004 0.000000 0.000000 0.000000 4.023100 -0.171820 1.248982 -1.276382 -11.017721 -4.893329 2.631649 0.205188 -0.181009 -8.396148 -8.450987 -0.231178 -90.588820 -16.634488 -24.499246 -1.741619 26.265160 -0.198197 3.452699 -0.431997 0.943961 3.273180 6.347942 2.032713 26.199471 20.239083 -54.127310 178.831865 71.205099 -176.542739 0.000000 -0.000000 -0.000000 2.624942 16.847940 -20.750252 -4.588779 -11.688733 9.178413 -0.000000 0.000000 -0.000000 2.544491 -5.912147 -0.628253 15.518517 10.433349 -0.873880 
-1.527927 -0.568060 -0.893588 -8.692771 27.344207 -4.564933 -0.000000 -0.000000 -0.000000 0.576865 -1.105654 -2.892895 3.424399 0.016405 0.812133 0.000000 0.000000 0.000000 4.067397 -0.100743 1.675513 -1.091851 -11.752934 -5.594676 2.553534 0.108425 0.035037 -9.427420 -6.638120 -1.043163 -90.029877 -17.661575 -24.251465 -1.813262 28.087240 -0.177901 3.506299 -0.533351 1.202923 3.462156 6.590127 2.476121 26.812031 21.180700 -54.371374 178.792069 66.741473 -176.555893 0.000000 -0.000000 -0.000000 3.038064 17.172381 -20.358813 -4.310891 -11.699443 9.162014 -0.000000 0.000000 -0.000000 2.823828 -7.110563 -0.431437 14.981386 10.178282 -1.016186 
-1.646756 -0.630446 -1.011519 -8.782062 26.077752 -4.188874 -0.000000 -0.000000 -0.000000 1.273228 -0.889298 -2.893601 3.433455 -0.051707 1.157110 0.000000 0.000000 0.000000 4.159688 -0.023137 2.219404 -1.453757 -12.454775 -6.181685 2.533061 0.078492 0.351502 -10.035902 -5.717625 -1.360160 -89.165852 -18.333923 -24.096881 -1.852621 28.583140 -0.071497 3.626771 -0.571273 1.521864 4.053325 7.285805 3.079102 28.854479 22.552168 -52.483801 178.913376 66.107172 -176.495116 0.000000 -0.000000 -0.000000 3.186413 17.115681 -20.334116 -4.278263 -12.014943 8.911058 -0.000000 0.000000 -0.000000 3.225840 -7.798897 -0.400128 14.237645 9.349033 -1.394811 
-1.735707 -0.695971 -1.118811 -8.877651 25.642426 -3.828946 -0.000000 -0.000000 -0.000000 1.848514 -0.699291 -2.811329 3.526209 -0.084738 1.469386 0.000000 0.000000 0.000000 4.270902 0.014393 2.720501 -1.907273 -13.034364 -6.856807 2.558059 0.108625 0.627301 -10.125916 -5.616751 -1.272111 -89.159305 -18.652036 -24.387728 -1.866232 28.691724 0.049128 3.763165 -0.580523 1.836263 4.700066 7.977948 3.699920 31.659865 23.855593 -49.283322 179.291100 68.496011 -176.138915 0.000000 -0.000000 -0.000000 3.184529 16.907443 -20.444003 -4.302940 -12.423549 8.652310 -0.000000 0.000000 -0.000000 3.625703 -8.056523 -0.444976 13.635732 8.505995 -1.616811 
-1.809906 -0.763752 -1.219337 -9.014243 25.791834 -3.655289 -0.000000 -0.000000 -0.000000 2.318562 -0.508436 -2.806733 3.658837 -0.088073 1.767628 0.000000 0.000000 0.000000 4.384256 0.027084 3.150516 -2.252088 -13.432039 -7.348756 2.622312 0.174929 0.925788 -9.770331 -5.972848 -1.052274 -89.876609 -18.616911 -24.791858 -1.854264 28.815013 0.192975 3.912283 -0.594914 2.118178 5.343997 8.521974 4.130042 34.333250 24.346679 -45.478764 179.967333 71.974647 -175.498335 0.000000 -0.000000 -0.000000 3.188068 16.699200 -20.562852 -4.359793 -12.730128 8.526657 0.000000 0.000000 -0.000000 3.902092 -8.333460 -0.484234 13.323131 7.937743 -1.780065 
-1.877710 -0.831091 -1.316453 -9.148597 26.061606 -3.610429 -0.000000 -0.000000 -0.000000 2.670346 -0.387214 -2.846470 3.780368 -0.077621 2.030900 0.000000 0.000000 0.000000 4.500965 0.017290 3.496089 -2.543436 -13.521539 -7.686006 2.690777 0.280838 1.361197 -9.222239 -6.599007 -0.782315 -90.940718 -18.356130 -25.040566 -1.843314 28.880729 0.275983 4.045355 -0.599385 2.363249 5.739944 8.900967 4.351457 36.042569 24.544331 -42.529951 -179.298409 74.457483 -174.817907 0.000000 -0.000000 -0.000000 3.243998 16.581331 -20.610599 -4.408238 -12.955992 8.476520 0.000000 0.000000 -0.000000 4.065591 -8.746299 -0.491600 13.248156 7.674610 -1.840754 
-1.943012 -0.896722 -1.412218 -9.250386 26.242822 -3.612134 -0.000000 -0.000000 -0.000000 2.881720 -0.316476 -2.893528 3.840779 -0.072104 2.263007 0.000000 0.000000 0.000000 4.574115 -0.000613 3.741855 -2.723828 -13.564681 -7.841869 2.738896 0.340771 1.721091 -8.687625 -7.305711 -0.494381 -91.844139 -17.941712 -25.120587 -1.828609 28.984847 0.336978 4.114638 -0.611867 2.557846 5.811325 9.065332 4.408690 36.705865 24.759721 -41.015296 -178.960977 74.783132 -174.510233 0.000000 0.000000 -0.000000 3.314395 16.518437 -20.643257 -4.437056 -13.077067 8.491535 0.000000 0.000000 -0.000000 4.161809 -9.053866 -0.476857 13.274402 7.543476 -1.851898 
-2.008284 -0.960665 -1.507806 -9.312780 26.333790 -3.606901 0.000000 -0.000000 -0.000000 3.012259 -0.285615 -2.917146 3.822419 -0.072546 2.448331 0.000000 0.000000 0.000000 4.588170 -0.008000 3.874200 -2.787338 -13.604622 -7.998823 2.749693 0.364325 1.985569 -8.290075 -7.938099 -0.219081 -92.394172 -17.606501 -25.066922 -1.819238 29.102468 0.350889 4.110640 -0.632936 2.693933 5.653203 9.106292 4.334109 36.534937 25.078157 -41.109271 -179.195805 73.201231 -174.768987 0.000000 0.000000 -0.000000 3.377181 16.483710 -20.673908 -4.453980 -13.154125 8.517727 0.000000 0.000000 -0.000000 4.198153 -9.253681 -0.445866 13.335026 7.477451 -1.879791 
